<svg width="40" height="49" viewBox="0 0 40 49" fill="none" xmlns="http://www.w3.org/2000/svg">
<g id="Frame" clip-path="url(#clip0_1_108)">
<g id="XMLID_1_">
<path id="XMLID_13_" d="M29.1825 0C30.8292 0.695774 32.1896 1.66328 32.6733 3.49859C33.3857 6.19732 31.6636 8.82263 28.8996 9.38034C28.2327 9.51512 27.5936 9.94244 27.0244 10.3479C25.856 11.1806 24.7264 12.0692 23.6123 12.9732C22.2786 14.0568 20.926 15.1273 19.6832 16.3074C18.8954 17.0558 18.1398 17.9542 19.2305 19.4751C17.7015 19.0467 16.5464 18.7223 15.3913 18.3991C15.3647 18.2216 15.3369 18.0452 15.3103 17.8677C15.8451 17.6924 16.4121 17.3122 16.9059 17.39C17.6948 17.5127 17.9234 17.1117 18.3539 16.6306C19.438 15.4155 20.8539 14.448 21.7626 13.1309C22.8489 11.5564 23.5602 9.72659 24.3924 7.9877C24.4567 7.85293 24.2115 7.56147 24.0917 7.35438C22.4095 4.4398 23.4126 1.53289 26.5439 0.243247C26.6882 0.184079 26.8146 0.082178 26.9489 0C27.6934 0 28.438 0 29.1825 0ZM24.0429 11.4447C24.1117 11.4972 24.1805 11.5509 24.2492 11.6035C25.0759 10.888 25.9037 10.1736 26.8357 9.3672C26.1389 9.04396 25.6718 8.82701 25.1558 8.58815C24.7619 9.59729 24.4024 10.521 24.0429 11.4447Z" fill="white"/>
<path id="XMLID_9_" d="M28.7708 37.7471C28.7442 37.7394 28.6277 37.6967 28.5079 37.6715C25.4953 37.036 25.2778 36.8749 25.3522 33.8058C25.4265 30.7061 25.6795 27.6096 25.9081 24.5153C25.9303 24.2162 26.2742 23.8075 26.5694 23.6826C30.6971 21.9361 32.4902 18.6829 32.751 14.4359C32.8508 12.8077 32.0608 11.8052 30.7204 11.7657C29.4355 11.7274 28.5955 12.6182 28.5101 14.1763C28.4002 16.1595 27.8454 17.9104 25.9558 19.2899C25.9125 18.6676 25.8837 18.249 25.847 17.7263C25.5796 17.8765 25.3011 17.9608 25.1258 18.1427C23.9851 19.3294 22.6037 19.5989 20.9881 19.4959C19.8896 19.4258 19.1728 19.2088 19.0918 17.9225C22.5149 16.3381 25.1902 13.7807 27.649 10.9352C28.8419 9.55347 32.134 9.69811 33.9815 11.0787C35.6193 12.3037 36.5991 14.0075 37.3569 15.8341C39.5462 21.1066 40.0888 26.6454 39.9878 32.2773C39.97 33.2569 39.8313 34.2343 39.838 35.2127C39.8458 36.2022 39.3553 36.7478 38.4466 36.9527C37.125 37.2496 35.7913 37.4962 34.1535 37.8271C34.1535 39.6503 34.1568 41.5218 34.1513 43.3933C34.1491 44.0463 34.1302 44.6994 34.1136 45.3535C34.0492 47.8265 33.0683 49.0844 31.2752 48.9967C29.4865 48.9091 28.6965 47.6128 28.7586 45.1004C28.8174 42.6975 28.7708 40.2935 28.7708 37.7471ZM32.2772 29.3277C32.2184 29.1502 32.1596 28.9738 32.0996 28.7963C31.081 29.0308 30.0569 29.2466 29.0494 29.5194C28.8973 29.5611 28.7598 29.8536 28.7298 30.0476C28.7165 30.1308 29.0294 30.3796 29.1315 30.3489C30.1867 30.0322 31.2297 29.6739 32.2772 29.3277Z" fill="white"/>
<path id="XMLID_8_" d="M12.958 16.4673C12.6639 15.9578 12.3388 15.4626 12.0825 14.9344C11.4778 13.6919 10.4192 13.1682 9.29517 13.5944C8.12898 14.036 7.49873 15.3157 8.18335 16.5166C8.9978 17.9476 10.0686 19.2548 11.156 20.5083C11.5798 20.997 11.7773 21.3049 11.5998 21.9579C11.2059 23.3999 10.9352 24.8747 10.6056 26.3791C11.0461 26.5128 11.3091 26.6169 11.5821 26.6706C16.198 27.5877 19.0708 30.4617 19.4114 35.0352C19.5845 37.3592 19.2161 39.7412 18.9065 42.0729C18.7212 43.471 17.3409 44.2556 16.0637 43.9794C14.6778 43.6792 13.9655 42.4772 14.1419 41.0254C14.3572 39.2537 14.6213 37.46 14.5447 35.6893C14.4271 32.9709 12.908 31.6078 10.1385 31.3405C8.90792 31.2221 7.6574 31.1882 6.45348 30.9416C4.35634 30.5121 3.24563 29.183 3.13245 27.0935C2.90498 22.8882 3.76381 18.8954 5.77663 15.1865C6.22602 14.3581 6.95502 13.5933 7.73174 13.0422C8.96451 12.1667 10.4214 11.8851 11.8129 12.6992C13.2065 13.5155 13.3175 14.918 13.2797 16.326C13.171 16.372 13.0645 16.4191 12.958 16.4673Z" fill="white"/>
<path id="XMLID_5_" d="M11.3235 48.7217C9.24743 48.9661 9.25186 48.965 9.02994 47.2086C8.95893 46.6421 8.8635 46.0789 8.76697 45.428C6.73196 45.428 4.68918 45.428 2.55098 45.428C2.40008 46.5084 2.25028 47.5877 2.08828 48.748C1.42807 48.748 0.791156 48.748 -0.00109863 48.748C0.314028 43.3276 0.626936 37.9356 0.945391 32.4702C4.07336 32.4702 7.15694 32.4702 10.3781 32.4702C10.6921 37.8523 11.005 43.2454 11.3235 48.7217ZM2.83171 44.3104C4.72913 44.3104 6.68092 44.3104 8.42077 44.3104C8.42077 40.9937 8.42077 37.7921 8.42077 34.6222C6.45345 34.6222 4.74134 34.6222 2.83171 34.6222C2.83171 37.8797 2.83171 41.0507 2.83171 44.3104Z" fill="white"/>
<path id="XMLID_4_" d="M8.09125 6.97737C8.10567 4.37507 10.3171 2.22529 12.9291 2.2735C15.5211 2.32171 17.6249 4.42328 17.6427 6.98175C17.6604 9.58734 15.4923 11.7459 12.8648 11.7393C10.2272 11.7338 8.07793 9.58953 8.09125 6.97737Z" fill="white"/>
<path id="XMLID_3_" d="M21.6916 20.6409C26.3175 20.7176 28.62 18.6138 28.9451 14.013C29.0272 12.8449 29.663 12.1897 30.6905 12.2094C31.7457 12.2302 32.3671 12.9698 32.3715 14.2113C32.3893 19.578 28.5734 23.6234 23.1252 23.9806C22.2209 24.0398 21.3032 24.0288 20.4 23.9587C19.1717 23.8644 18.4416 23.0931 18.5381 22.1047C18.6302 21.157 19.4147 20.5729 20.5776 20.5927C20.9482 20.5992 21.3199 20.6255 21.6916 20.6409Z" fill="white"/>
<path id="XMLID_2_" d="M22.5371 19.9584C20.5831 20.2969 17.9167 19.4302 18.132 23.023C14.2107 22.3448 10.9496 20.7966 8.9545 17.2662C8.71593 16.8433 8.50067 16.3842 8.39637 15.9163C8.2033 15.0529 8.56059 14.3472 9.38169 14.0295C10.2328 13.7008 11.116 13.8706 11.5021 14.7494C13.222 18.6632 16.6241 19.6264 20.4688 19.8565C21.1257 19.8959 21.7859 19.8871 22.4439 19.9047C22.4772 19.9058 22.5072 19.9397 22.5371 19.9584Z" fill="white"/>
</g>
</g>
<defs>
<clipPath id="clip0_1_108">
<rect width="40" height="49" fill="white"/>
</clipPath>
</defs>
</svg>
