<svg width="45" height="45" viewBox="0 0 45 45" fill="none" xmlns="http://www.w3.org/2000/svg">
<g id="Frame">
<g id="Group 26">
<g id="XMLID_2_">
<path id="XMLID_18_" d="M5.56389 3C5.67805 3.18001 5.79881 3.35609 5.90482 3.54083C6.0512 3.79529 6.19448 4.05251 6.32417 4.31563C6.38863 4.44641 6.45464 4.4665 6.59521 4.43262C8.9176 3.87368 10.9476 4.42632 12.6445 6.13271C13.03 6.52031 13.3283 6.99693 13.6894 7.46173C12.4701 8.13688 11.3056 8.7817 10.1302 9.43282C10.4401 10.0682 10.4832 10.7099 10.2188 11.3594C10.0161 11.8569 9.67361 12.2299 9.20261 12.4781C8.27187 12.9681 6.96952 12.7538 6.25894 11.576C5.09561 12.2189 3.93072 12.8629 2.75535 13.5125C2.41248 12.8901 2.17951 12.2394 2.0801 11.5485C1.75704 9.30362 2.41132 7.39635 4.04061 5.83925C4.13458 5.74944 4.14389 5.68523 4.08254 5.57534C3.87597 5.20467 3.67794 4.82928 3.47913 4.45429C3.35643 4.22267 3.38788 4.11671 3.61387 3.99106C4.14622 3.69563 4.67974 3.40178 5.2121 3.10635C5.26723 3.07563 5.31732 3.03585 5.37013 3C5.43459 3 5.49905 3 5.56389 3Z" fill="white"/>
<path id="XMLID_17_" d="M27.673 17.6513C27.925 18.3528 28.163 19.0161 28.401 19.6795C28.5525 20.1013 28.5521 20.1009 28.1747 20.353C27.3437 20.908 26.5104 21.4595 25.6834 22.02C24.0211 23.1462 23.8529 25.367 25.3211 26.7496C25.3397 26.7669 25.3556 26.787 25.3918 26.8264C24.0704 26.8264 22.7708 26.8264 21.454 26.8264C21.4836 26.791 21.5065 26.7563 21.5356 26.7291C22.9668 25.3938 22.8042 23.1458 21.19 22.0464C20.2892 21.4327 19.379 20.8328 18.4735 20.2262C18.4149 20.1868 18.3578 20.1447 18.2898 20.097C18.5768 19.2899 18.8622 18.4867 19.1584 17.6532C18.6653 17.6532 18.2025 17.6505 17.74 17.6583C17.7027 17.6591 17.6487 17.7233 17.6321 17.769C17.2958 18.6967 16.9657 19.6267 16.6287 20.5539C16.5825 20.6815 16.6621 20.7154 16.7359 20.7647C17.6693 21.3882 18.6028 22.0114 19.5359 22.6349C19.8434 22.8405 20.1583 23.0355 20.455 23.2561C20.9916 23.6551 21.2102 24.2038 21.0646 24.8605C20.9209 25.5092 20.4961 25.9071 19.8527 26.0394C19.4268 26.1269 19.0361 26.0154 18.675 25.7719C17.6903 25.1086 16.7017 24.4508 15.7146 23.791C15.1431 23.4085 14.5715 23.0261 13.9995 22.644C13.2699 22.1563 13.0579 21.5135 13.3488 20.6741C13.9992 18.7967 14.6651 16.9245 15.293 15.0393C15.7682 13.6118 16.6139 13.0166 18.1124 12.8827C18.3244 12.8638 18.5387 12.8614 18.7519 12.8614C21.8614 12.8602 24.9708 12.8555 28.0803 12.8665C28.5296 12.8681 28.9854 12.9126 29.4265 12.9985C30.4202 13.1919 31.0954 13.7934 31.4367 14.7604C31.9213 16.1347 32.3947 17.5134 32.8723 18.8905C33.08 19.4896 33.287 20.0887 33.4943 20.6878C33.7778 21.5072 33.572 22.1512 32.8583 22.631C31.5066 23.5393 30.1511 24.4421 28.7975 25.3473C28.5657 25.5025 28.3354 25.6605 28.1009 25.8113C27.3744 26.2785 26.4425 26.0839 25.9812 25.3713C25.518 24.656 25.7063 23.7118 26.4262 23.2254C27.6412 22.4045 28.862 21.5922 30.0847 20.7824C30.209 20.7001 30.24 20.6339 30.186 20.4873C29.861 19.6042 29.545 18.7179 29.2328 17.8301C29.1873 17.7005 29.1314 17.6453 28.9874 17.6489C28.5618 17.6579 28.1358 17.6513 27.673 17.6513Z" fill="white"/>
<path id="XMLID_16_" d="M28.1894 40.9948C28.1894 36.8643 28.1894 32.7543 28.1894 28.6294C32.1272 28.6294 36.0586 28.6294 39.9995 28.6294C39.9995 32.7492 39.9995 36.8647 39.9995 40.9948C36.068 40.9948 32.1365 40.9948 28.1894 40.9948Z" fill="white"/>
<path id="XMLID_15_" d="M6.24922 41.0001C6.24922 40.9261 6.24922 40.8623 6.24922 40.798C6.24922 39.6636 6.24767 38.5292 6.24961 37.3947C6.25116 36.5549 6.75051 36.0539 7.58224 36.0539C13.9239 36.0535 20.2655 36.0539 26.6072 36.0539C26.6709 36.0539 26.7349 36.0539 26.8137 36.0539C26.8137 37.7063 26.8137 39.3477 26.8137 41.0001C19.9642 41.0001 13.1162 41.0001 6.24922 41.0001Z" fill="white"/>
<path id="XMLID_14_" d="M26.8145 34.7983C26.7423 34.8014 26.6794 34.8069 26.6161 34.8069C23.526 34.8073 20.4364 34.8101 17.3463 34.8062C15.7962 34.8042 14.5918 33.7852 14.3091 32.2525C14.0105 30.6359 15.1754 28.976 16.7798 28.7365C16.9708 28.7081 17.1658 28.694 17.3587 28.694C20.4488 28.6912 23.5385 28.692 26.6285 28.692C26.6856 28.692 26.7431 28.692 26.8145 28.692C26.8145 30.7281 26.8145 32.7504 26.8145 34.7983Z" fill="white"/>
<path id="XMLID_13_" d="M9.94486 34.8067C7.93426 34.8095 6.30342 33.1642 6.29915 31.1285C6.29488 29.079 7.91873 27.4293 9.94097 27.429C11.9551 27.4286 13.5855 29.0703 13.5906 31.1045C13.5956 33.1465 11.9632 34.804 9.94486 34.8067Z" fill="white"/>
<path id="XMLID_12_" d="M19.1177 7.05815C19.9645 7.05815 20.7978 7.05618 21.6315 7.06249C21.6862 7.06288 21.7623 7.11409 21.7911 7.16411C22.3669 8.16502 23.7555 8.15478 24.3138 7.15742C24.3379 7.11409 24.3973 7.06327 24.4408 7.06288C25.2997 7.05736 26.1582 7.05894 27.0133 7.05894C27.2928 8.20126 26.9313 9.95964 25.4869 11.0602C24.117 12.104 22.2023 12.1423 20.7866 11.1551C19.2745 10.0999 18.8346 8.30801 19.1177 7.05815Z" fill="white"/>
<path id="XMLID_4_" d="M19.4252 6.07675C19.829 4.97461 21.2207 3.68576 23.0791 3.69364C25.0077 3.70191 26.3419 5.07978 26.7034 6.09566C26.5881 6.09566 26.4809 6.09566 26.3738 6.09566C25.7859 6.09566 25.1984 6.09369 24.6105 6.09763C24.501 6.09841 24.4439 6.0736 24.4008 5.95464C24.1838 5.3563 23.6638 4.99234 23.0515 4.99037C22.4419 4.98879 21.9301 5.35354 21.6913 5.94716C21.6664 6.0086 21.5861 6.08817 21.5302 6.08896C20.8456 6.09802 20.161 6.09448 19.4765 6.0929C19.4601 6.0929 19.4427 6.08266 19.4252 6.07675Z" fill="white"/>
</g>
</g>
</g>
</svg>
