<svg width="51" height="42" viewBox="0 0 51 42" fill="none" xmlns="http://www.w3.org/2000/svg">
<g id="Frame" clip-path="url(#clip0_1_117)">
<g id="XMLID_2_">
<path id="XMLID_5_" d="M10.42 41.9998C10.2554 38.5843 10.0976 35.3481 9.93708 32.023C6.66715 31.8632 3.42629 31.7048 0 31.5366C0.27676 31.2407 0.431746 31.0642 0.597802 30.8975C3.53976 27.9433 6.47757 24.9836 9.43476 22.0447C9.79455 21.6876 9.85543 21.3889 9.7212 20.9025C7.17501 11.7038 12.7019 2.47874 21.9955 0.387497C31.2961 -1.70514 40.609 4.91043 41.7009 14.3773C41.961 16.6283 41.8282 18.8433 41.1639 21.0137C41.0394 21.4208 41.1252 21.6765 41.4241 21.9753C44.3951 24.9322 47.3468 27.91 50.3178 30.8697C50.4908 31.042 50.7703 31.1045 51 31.2184C50.9211 31.3268 50.8422 31.4352 50.7648 31.5436C47.5391 31.7006 44.3149 31.859 40.9896 32.0216C40.8277 35.305 40.6658 38.5704 40.4969 41.9887C40.1856 41.6941 40.0002 41.5288 39.8258 41.3537C36.8825 38.4009 33.9336 35.4537 31.0041 32.4857C30.683 32.1591 30.409 32.0952 29.9814 32.2203C26.9717 33.1012 23.9536 33.1012 20.9452 32.2175C20.5093 32.0897 20.2422 32.1689 19.924 32.4899C16.9945 35.4565 14.0456 38.4051 11.1022 41.3565C10.9251 41.5329 10.7397 41.6983 10.42 41.9998ZM38.7174 16.4449C38.7174 9.12765 32.8002 3.15406 25.5464 3.14711C18.1818 3.14016 12.2148 9.04567 12.2107 16.3435C12.2065 23.7733 18.0849 29.7414 25.4094 29.7428C32.7892 29.7455 38.7174 23.822 38.7174 16.4449Z" fill="white"/>
<path id="XMLID_4_" d="M21.1071 14.2775C21.7049 14.2775 22.3041 14.2511 22.9005 14.2873C23.2977 14.3109 23.4721 14.1553 23.5841 13.7898C23.9412 12.6226 24.3314 11.4665 24.6967 10.3021C24.8226 9.89912 25.0178 9.47948 25.4717 9.60593C25.7706 9.6893 26.1013 10.0381 26.2161 10.3452C26.6354 11.4651 26.9814 12.6143 27.3273 13.7606C27.4463 14.1539 27.6387 14.297 28.0566 14.2887C29.2743 14.2609 30.4962 14.247 31.7126 14.3012C32.0129 14.3151 32.4737 14.5568 32.5443 14.7903C32.619 15.0362 32.3976 15.5017 32.1609 15.6893C31.1895 16.4619 30.171 17.1775 29.1526 17.8889C28.8509 18.1001 28.7983 18.2961 28.9159 18.6379C29.3159 19.7898 29.7158 20.9459 30.0382 22.1201C30.1254 22.4355 30.0548 22.9802 29.8458 23.1372C29.641 23.2914 29.0972 23.1969 28.826 23.0191C27.8642 22.391 26.9316 21.7101 26.0362 20.9876C25.5837 20.6221 25.2821 20.6722 24.8572 21.0112C23.9924 21.6976 23.0818 22.3257 22.1948 22.983C21.8516 23.2372 21.5029 23.486 21.0739 23.1928C20.6062 22.8732 20.7529 22.4355 20.894 22.0103C21.2621 20.8959 21.6136 19.7745 22.0038 18.6671C22.1353 18.2961 22.0675 18.0904 21.7437 17.8653C20.7598 17.1858 19.8022 16.4661 18.8294 15.7699C18.471 15.5128 18.1084 15.1821 18.3741 14.7569C18.5347 14.4999 18.9802 14.3401 19.3193 14.2984C19.9046 14.2261 20.5093 14.2789 21.1071 14.2775Z" fill="white"/>
</g>
</g>
<defs>
<clipPath id="clip0_1_117">
<rect width="51" height="42" fill="white"/>
</clipPath>
</defs>
</svg>
