<svg width="48" height="48" viewBox="0 0 48 48" fill="none" xmlns="http://www.w3.org/2000/svg">
<g id="healthicons:doctor-male">
<g id="Group">
<path id="Vector" fill-rule="evenodd" clip-rule="evenodd" d="M33.834 13.8099C33.834 17.2709 32.974 21.7849 31.651 21.0999C31.11 22.8666 29.9742 24.3917 28.4365 25.416C26.8988 26.4404 25.0539 26.901 23.2152 26.7196C21.3764 26.5382 19.6571 25.726 18.3492 24.4209C17.0412 23.1158 16.2253 21.3983 16.04 19.5599C14.727 17.2629 13.005 12.6599 17.432 9.07192C17.512 9.04592 17.56 8.82992 17.632 8.51192C17.906 7.30892 18.513 4.63492 22.342 5.14592C25.295 5.53892 33.834 7.06292 33.834 13.8099ZM30.028 15.9919C30.028 15.9919 29.576 17.3139 30 18.7869C29.9945 20.3575 29.3734 21.8633 28.27 22.981C27.1666 24.0988 25.6689 24.7393 24.0985 24.7651C22.5282 24.7909 21.0103 24.1999 19.8708 23.119C18.7313 22.0381 18.0611 20.5535 18.004 18.9839C18.149 18.4339 18.149 17.5029 18.148 16.4679C18.147 14.6009 18.145 12.3979 19 11.4999C24.989 15.4889 30.028 15.9919 30.028 15.9919Z" fill="white"/>
<path id="Vector_2" d="M13 36C13 34.918 13.573 33.97 14.433 33.442C14.4003 33.3175 14.3696 33.1925 14.341 33.067C14.1893 32.3838 14.0708 31.6936 13.986 30.999C13.9001 30.3334 13.8483 29.6638 13.831 28.993C9.61 30.65 6 33.538 6 36.57V42H42V36.57C42 33.666 38.69 30.895 34.702 29.21V29.238C34.72 29.848 34.686 30.548 34.62 31.221C34.56 31.845 34.471 32.467 34.364 33H35C35.1857 33.0001 35.3676 33.0518 35.5255 33.1495C35.6834 33.2472 35.811 33.3869 35.894 33.553L36.894 35.553C36.964 35.692 37 35.845 37 36V38C37 38.2652 36.8946 38.5195 36.7071 38.7071C36.5196 38.8946 36.2652 39 36 39H34V37H35V36.236L34.382 35H31.618L31 36.236V37H32V39H30C29.7348 39 29.4804 38.8946 29.2929 38.7071C29.1054 38.5195 29 38.2652 29 38V36C29 35.845 29.036 35.692 29.106 35.553L30.106 33.553C30.189 33.3869 30.3166 33.2472 30.4745 33.1495C30.6324 33.0518 30.8143 33.0001 31 33H32.315C32.337 32.914 32.359 32.819 32.381 32.714C32.481 32.243 32.57 31.646 32.63 31.029C32.69 30.411 32.718 29.798 32.703 29.294C32.6993 29.0852 32.6829 28.8768 32.654 28.67C32.632 28.528 32.61 28.463 32.606 28.449C32.605 28.446 32.604 28.445 32.606 28.447L32.609 28.446C32.0784 28.2811 31.5417 28.1367 31 28.013C30.497 27.898 29.977 28.59 29.75 29.023H18C17.9708 28.9672 17.9421 28.9112 17.914 28.855C17.702 28.433 17.441 27.912 17 28.013C16.615 28.1 16.23 28.2 15.845 28.31C15.8326 28.4853 15.8273 28.6611 15.829 28.837C15.833 29.39 15.886 30.067 15.971 30.751C16.056 31.433 16.171 32.097 16.291 32.621C16.325 32.772 16.359 32.908 16.391 33.025C16.9627 33.1001 17.5007 33.3384 17.9404 33.7114C18.3802 34.0844 18.7032 34.5762 18.8707 35.128C19.0381 35.6797 19.0431 36.2681 18.8848 36.8226C18.7266 37.3771 18.4119 37.8742 17.9785 38.2545C17.545 38.6348 17.0111 38.8821 16.4408 38.9668C15.8704 39.0515 15.2877 38.9701 14.7624 38.7322C14.2371 38.4943 13.7915 38.1101 13.479 37.6255C13.1664 37.141 13.0001 36.5766 13 36Z" fill="white"/>
<path id="Vector_3" d="M17 35.9999C17 36.5739 16.538 37.0149 16 37.0149C15.462 37.0149 15 36.5749 15 35.9999C15 35.4259 15.462 34.9849 16 34.9849C16.538 34.9849 17 35.4249 17 35.9999Z" fill="white"/>
</g>
</g>
</svg>
